<svg width="24" height="24" viewBox="0 0 24 24" fill="none" xmlns="http://www.w3.org/2000/svg">
<g id="bag">
<path id="bag_2" d="M7.66071 18.755H16.5201C17.974 18.755 18.8178 17.9112 18.8178 16.2991V8.50192C18.8178 6.88975 17.9665 6.046 16.3393 6.046H15.2771C15.2394 4.3585 13.8005 2.95728 12 2.95728C10.207 2.95728 8.76059 4.3585 8.72293 6.046H7.66071C6.03347 6.046 5.18219 6.88975 5.18219 8.50192V16.2991C5.18219 17.9112 6.03347 18.755 7.66071 18.755ZM12 4.2907C13.0321 4.2907 13.793 5.06665 13.8231 6.046H10.1769C10.207 5.06665 10.9679 4.2907 12 4.2907ZM7.75864 17.2558C7.06556 17.2558 6.68135 16.8942 6.68135 16.1635V8.63752C6.68135 7.91431 7.06556 7.5527 7.75864 7.5527H16.2413C16.9269 7.5527 17.3186 7.91431 17.3186 8.63752V16.1635C17.3186 16.8942 16.9269 17.2558 16.4221 17.2558H7.75864Z" fill="#181818"/>
</g>
</svg>
