<svg width="24" height="24" viewBox="0 0 24 24" fill="none" xmlns="http://www.w3.org/2000/svg">
<g id="chevron.down">
<path id="chevron.down_2" d="M12 15.847C12.2637 15.8395 12.5048 15.7416 12.7006 15.5306L18.4261 9.66959C18.5918 9.50385 18.6822 9.29292 18.6822 9.04431C18.6822 8.5471 18.2905 8.14783 17.7933 8.14783C17.5522 8.14783 17.3186 8.24576 17.1454 8.41903L12.0075 13.7L6.85464 8.41903C6.68137 8.2533 6.45537 8.14783 6.20676 8.14783C5.70955 8.14783 5.31781 8.5471 5.31781 9.04431C5.31781 9.29292 5.40821 9.50385 5.57395 9.66959L11.3069 15.5306C11.5103 15.7416 11.7363 15.847 12 15.847Z" fill="#464646"/>
</g>
</svg>
