<svg width="48" height="48" viewBox="0 0 48 48" fill="none" xmlns="http://www.w3.org/2000/svg">
<g id="ic:outline-apple">
<path id="Vector" d="M34.1 40.56C32.14 42.46 30 42.16 27.94 41.26C25.76 40.34 23.76 40.3 21.46 41.26C18.58 42.5 17.06 42.14 15.34 40.56C5.58 30.5 7.02 15.18 18.1 14.62C20.8 14.76 22.68 16.1 24.26 16.22C26.62 15.74 28.88 14.36 31.4 14.54C34.42 14.78 36.7 15.98 38.2 18.14C31.96 21.88 33.44 30.1 39.16 32.4C38.02 35.4 36.54 38.38 34.08 40.58L34.1 40.56ZM24.06 14.5C23.76 10.04 27.38 6.36 31.54 6C32.12 11.16 26.86 15 24.06 14.5Z" fill="black"/>
</g>
</svg>
