<svg width="24" height="24" viewBox="0 0 24 24" fill="none" xmlns="http://www.w3.org/2000/svg">
<g id="person">
<path id="person_2" d="M12 11.8695C13.8231 11.8695 15.2997 10.2573 15.2997 8.28353C15.2997 6.3399 13.8231 4.79553 12 4.79553C10.1844 4.79553 8.69281 6.3625 8.70034 8.2986C8.70788 10.2648 10.1769 11.8695 12 11.8695ZM12 10.5511C10.9604 10.5511 10.079 9.56423 10.079 8.2986C10.0714 7.06311 10.9529 6.11389 12 6.11389C13.0547 6.11389 13.921 7.04804 13.921 8.28353C13.921 9.54916 13.0472 10.5511 12 10.5511ZM7.29912 18.8756H16.6934C17.9967 18.8756 18.6219 18.4613 18.6219 17.5723C18.6219 15.5006 16.038 12.7434 12 12.7434C7.96206 12.7434 5.37054 15.5006 5.37054 17.5723C5.37054 18.4613 5.99582 18.8756 7.29912 18.8756ZM7.06558 17.5573C6.88477 17.5573 6.81697 17.497 6.81697 17.3614C6.81697 16.2088 8.67774 14.0617 12 14.0617C15.3147 14.0617 17.1755 16.2088 17.1755 17.3614C17.1755 17.497 17.1077 17.5573 16.9269 17.5573H7.06558Z" fill="#181818"/>
</g>
</svg>
